<?xml version="1.0" standalone="no"?>
<!DOCTYPE svg PUBLIC "-//W3C//DTD SVG 20010904//EN"
 "http://www.w3.org/TR/2001/REC-SVG-20010904/DTD/svg10.dtd">
<svg version="1.0" xmlns="http://www.w3.org/2000/svg"
 width="300.000000pt" height="150.000000pt" viewBox="0 0 300.000000 150.000000"
 preserveAspectRatio="xMidYMid meet">
<metadata>
Created by potrace 1.10, written by Peter Selinger 2001-2011
</metadata>
<g transform="translate(0.000000,150.000000) scale(0.100000,-0.100000)"
fill="#000000" stroke="none">
<path d="M1404 1346 c-82 -19 -133 -46 -177 -95 -53 -58 -85 -149 -59 -164 4
-3 48 -8 98 -12 l90 -7 16 40 c32 81 137 109 199 54 26 -23 31 -36 36 -88 l5
-61 -83 -7 c-103 -8 -197 -29 -247 -55 -115 -59 -174 -191 -143 -318 18 -71
55 -119 117 -149 49 -24 62 -26 142 -22 96 5 143 23 208 81 28 24 39 28 42 18
8 -23 83 -101 98 -101 19 0 154 119 154 136 0 7 -15 34 -32 59 l-33 47 -5 241
c-5 219 -7 246 -26 282 -23 44 -95 99 -152 115 -63 18 -183 21 -248 6z m226
-43 c32 -9 75 -29 94 -45 64 -53 68 -68 72 -323 5 -221 6 -232 30 -279 22 -44
25 -86 6 -86 -4 0 -21 -14 -39 -30 -18 -17 -37 -30 -43 -30 -6 0 -30 20 -54
45 -25 25 -51 45 -58 45 -8 0 -39 -18 -68 -40 -68 -51 -115 -63 -212 -58 -65
4 -82 9 -113 33 -90 68 -101 225 -23 320 55 66 105 83 354 121 48 7 67 35 65
96 -3 94 -63 158 -148 158 -42 0 -110 -38 -144 -81 -32 -40 -47 -45 -108 -33
-90 18 33 163 163 193 66 14 162 12 226 -6z"/>
<path d="M1520 920 c-116 -18 -190 -90 -190 -185 0 -98 76 -167 165 -151 85
16 145 111 145 229 0 100 -25 122 -120 107z m90 -75 c0 -83 -19 -143 -59 -186
-33 -34 -43 -39 -82 -39 -71 1 -99 35 -99 119 0 44 5 56 33 87 35 38 99 62
170 63 l37 1 0 -45z"/>
<path d="M2035 476 c-56 -14 -95 -32 -95 -45 0 -5 40 -6 90 -3 108 6 125 -3
115 -57 -4 -20 -16 -57 -27 -83 -11 -26 -18 -52 -16 -59 7 -21 67 53 88 109
20 53 27 127 13 135 -22 12 -124 14 -168 3z"/>
<path d="M772 448 c8 -24 143 -118 233 -163 115 -56 197 -82 315 -100 224 -35
451 -1 645 96 105 52 134 74 118 90 -10 10 -35 5 -120 -24 -173 -58 -263 -71
-463 -71 -141 0 -195 5 -276 22 -133 29 -239 64 -350 118 -97 47 -108 51 -102
32z m336 -152 c139 -39 235 -50 412 -49 154 0 306 20 385 49 14 5 17 4 10 -4
-8 -9 -99 -42 -155 -57 -8 -3 -35 -10 -60 -17 -27 -7 -111 -12 -210 -12 -155
0 -197 6 -305 38 -41 12 -175 68 -175 72 0 7 8 5 98 -20z"/>
</g>
</svg>
